<?xml version="1.0" encoding="UTF-8"?>
<svg width="305px" height="80px" viewBox="0 0 305 80" version="1.1" xmlns="http://www.w3.org/2000/svg" xmlns:xlink="http://www.w3.org/1999/xlink">
    <!-- Generator: Sketch 51.3 (57544) - http://www.bohemiancoding.com/sketch -->
    <title>super-sushi-logo-white</title>
    <desc>Created with Sketch.</desc>
    <defs>
        <polygon id="path-1" points="0.744507692 0.200089286 19.2289744 0.200089286 19.2289744 78.7662321 0.744507692 78.7662321"></polygon>
    </defs>
    <g id="Page-1" stroke="none" stroke-width="1" fill="none" fill-rule="evenodd">
        <g id="Super-Sushi-website" transform="translate(-468.000000, -182.000000)">
            <g id="super-sushi-logo-white" transform="translate(469.000000, 181.000000)">
                <path d="M105.971964,79.2135643 C104.370118,79.4247429 102.766323,79.6368857 101.270682,79.6368857 C96.5703744,79.6368857 93.2575538,78.0496714 93.2575538,73.3969929 C93.2575538,70.4366357 95.5015026,67.2651 99.2410923,66.8417786 L100.30899,66.7357071 C100.416169,66.3123857 100.523349,65.9951357 100.523349,65.5727786 C100.523349,60.2856 91.6557077,44.9534571 91.6557077,32.0522786 C91.6557077,26.9772429 97.9588359,20.6322429 103.728015,20.6322429 C104.583503,20.6322429 105.33181,20.7383143 106.079144,20.9494929 C107.789144,20.8434214 109.499144,20.7383143 112.81099,20.7383143 C116.337195,20.7383143 119.328477,23.6986714 119.328477,27.1884214 C119.328477,30.6781714 116.337195,33.7446 112.81099,33.7446 C108.536477,33.7446 108.430272,33.7446 107.681964,33.8506714 C107.575759,34.06185 107.575759,34.2730286 107.575759,34.3781357 C107.575759,44.1068143 116.978323,45.6930643 116.978323,65.3616 C116.978323,72.8695286 113.771708,78.26085 105.971964,79.2135643" id="Fill-1" fill="#FFFFFF"></path>
                <path d="M179.58839,72.0227893 L179.58839,74.0323607 C179.58839,77.7332893 176.703313,80.587575 173.070903,80.587575 C169.437518,80.587575 166.446236,77.7332893 166.446236,74.0323607 C166.446236,71.6004321 165.378338,63.7752536 165.163979,59.8621821 C160.355518,70.0132179 154.693518,79.5307179 145.077569,79.5307179 C133.216697,79.5307179 130.012031,67.8995036 130.012031,49.4999679 C130.012031,40.7230393 131.613877,33.3211821 131.613877,27.7177179 C131.613877,23.5934679 133.537262,21.5838964 136.101774,21.5838964 C136.635723,21.5838964 137.277826,21.6899679 137.917979,21.9011464 C139.200236,20.7382179 140.695877,20.1037179 142.405877,20.1037179 C145.932082,20.1037179 148.923364,23.1701464 148.923364,26.6598964 C148.923364,34.6952893 149.777877,52.777575 150.419005,61.3423607 C157.898185,54.363825 163.561159,40.3006821 163.561159,27.188325 C163.561159,23.5934679 166.659621,20.7382179 170.185826,20.7382179 C173.712031,20.7382179 176.703313,23.698575 176.703313,27.188325 L176.703313,28.6694679 C177.451621,33.3211821 178.092749,38.8205036 178.092749,43.3661464 C178.092749,43.3661464 178.092749,54.046575 178.198954,56.4785036 C178.306133,61.660575 178.840082,65.8889679 179.267826,68.5330393 C179.48121,70.1192893 179.58839,71.2822179 179.58839,72.0227893" id="Fill-3" fill="#FFFFFF"></path>
                <path d="M204.589662,79.2135643 C202.986841,79.4247429 201.383046,79.6368857 199.887405,79.6368857 C195.187097,79.6368857 191.874277,78.0496714 191.874277,73.3969929 C191.874277,70.4366357 194.118226,67.2651 197.857815,66.8417786 L198.926687,66.7357071 C199.032892,66.3123857 199.140072,65.9951357 199.140072,65.5727786 C199.140072,60.2856 190.272431,44.9534571 190.272431,32.0522786 C190.272431,26.9772429 196.575559,20.6322429 202.345713,20.6322429 C203.200226,20.6322429 203.948533,20.7383143 204.695867,20.9494929 C206.405867,20.8434214 208.114892,20.7383143 211.427713,20.7383143 C214.953918,20.7383143 217.9452,23.6986714 217.9452,27.1884214 C217.9452,30.6781714 214.953918,33.7446 211.427713,33.7446 C207.1532,33.7446 207.046995,33.7446 206.298687,33.8506714 C206.192482,34.06185 206.192482,34.2730286 206.192482,34.3781357 C206.192482,44.1068143 215.595046,45.6930643 215.595046,65.3616 C215.595046,72.8695286 212.388431,78.26085 204.589662,79.2135643" id="Fill-5" fill="#FFFFFF"></path>
                <path d="M274.57319,61.0254 C274.57319,64.7263286 274.466985,68.8505786 274.466985,73.5032571 C274.466985,77.2041857 271.581908,80.0594357 267.948523,80.0594357 C264.316113,80.0594357 260.148779,77.2041857 260.254985,73.5032571 L260.682728,47.5967571 C260.789908,42.6258643 256.622574,39.6655071 251.066779,39.6655071 C250.212267,39.6655071 249.463959,39.7715786 248.609446,39.87765 C248.502267,41.8862571 247.22001,68.0049 247.22001,70.3297929 L247.22001,74.3489357 C247.22001,77.8386857 244.121549,80.8000071 240.595344,80.8000071 C237.604062,80.8000071 235.039549,78.7904357 234.292215,75.93615 C230.980369,75.4067571 228.629241,72.7626857 228.629241,69.4850786 C228.629241,67.3704 229.056985,63.1410429 229.056985,62.9289 L229.056985,45.3760071 C229.056985,40.9345071 230.658831,18.7289357 231.727703,10.4804357 C232.261651,7.3089 235.146728,4.98304286 238.352369,4.98304286 C238.886318,4.98304286 240.381959,5.29932857 241.023087,5.61657857 C241.343651,5.51147143 242.411549,5.29932857 243.694779,5.29932857 C247.968318,5.4054 249.571138,8.15457857 249.571138,12.70215 L249.357754,24.4394357 C254.700164,24.0161143 261.7516,26.0256857 265.38401,28.0342929 C272.86319,32.26365 274.57319,34.4853643 274.57319,61.0254" id="Fill-7" fill="#FFFFFF"></path>
                <g id="Group-11" transform="translate(284.512821, 0.764293)">
                    <mask id="mask-2" fill="white">
                        <use xlink:href="#path-1"></use>
                    </mask>
                    <g id="Clip-10"></g>
                    <path d="M12.9249692,1.25694643 C11.8560974,0.517339286 10.573841,0.200089286 9.29158462,0.200089286 C4.80466154,0.200089286 1.59804615,4.74766071 1.59804615,8.97605357 C1.59804615,13.6287321 6.83522564,17.2245536 11.2159436,17.2245536 C15.2751231,17.2245536 19.2290718,13.6287321 19.2290718,8.65976786 C19.2290718,4.74766071 16.3439949,1.78633929 12.9249692,1.25694643 M19.2290718,71.1522321 C19.2290718,77.2860536 14.7411744,78.7662321 10.3604564,78.7662321 C6.08691795,78.7662321 2.13394359,77.392125 2.13394359,71.1522321 C2.13394359,67.557375 2.45353333,55.6089107 2.45353333,48.947625 C2.45353333,40.2758036 2.02578974,31.9221964 2.02578974,30.6531964 C1.17127692,29.4902679 0.744507692,28.2212679 0.744507692,26.8471607 C0.744507692,23.3574107 3.73578974,20.2909821 7.26199487,20.2909821 L12.4972256,20.2909821 C16.7707641,20.2909821 17.7324564,19.6564821 18.3735846,23.3574107 C18.4807641,24.0979821 18.6941487,25.8954107 18.6941487,27.3755893 C18.6941487,28.0100893 18.6941487,28.5385179 18.5879436,28.9618393 C18.9085077,29.8075179 18.9085077,30.4420179 18.9085077,32.3455179 C18.9085077,32.0292321 19.2290718,66.3944464 19.2290718,71.1522321" id="Fill-9" fill="#FFFFFF" mask="url(#mask-2)"></path>
                </g>
                <path d="M35.3908615,76.9699607 C38.9492205,78.3980679 42.8310667,79.2013179 46.9068103,79.2013179 C55.9284,79.2013179 64.0146051,75.3258536 69.6298359,69.1929964 C64.0146051,63.0601393 55.9284,59.1837107 46.9068103,59.1837107 C42.8310667,59.1837107 38.9492205,59.987925 35.3908615,61.4150679" id="Stroke-12" stroke="#FFFFFF" stroke-width="2.03059256"></path>
                <path d="M24.1842718,69.1926107 C27.2622718,72.555075 31.0739641,75.2377179 35.3903744,76.969575 C36.0558615,74.4836464 36.4446308,71.8858607 36.4446308,69.1926107 C36.4446308,66.4993607 36.0558615,63.901575 35.3903744,61.4156464 C31.0739641,63.1475036 27.2622718,65.8311107 24.1842718,69.1926107 Z" id="Stroke-14" stroke="#FFFFFF" stroke-width="2.03059256"></path>
                <path d="M69.451041,69.1926107 C72.529041,72.555075 76.339759,75.2377179 80.6571436,76.969575 C81.3226308,74.4836464 81.7114,71.8858607 81.7114,69.1926107 C81.7114,66.4993607 81.3226308,63.901575 80.6571436,61.4156464 C76.339759,63.1475036 72.529041,65.8311107 69.451041,69.1926107 Z" id="Stroke-16" stroke="#FFFFFF" stroke-width="2.03059256"></path>
                <path d="M34.6363179,61.4151643 C31.077959,59.9880214 27.1961128,59.1838071 23.1203692,59.1838071 C14.0987795,59.1838071 6.01257436,63.0602357 0.39734359,69.1921286 C6.01257436,75.32595 14.0987795,79.2014143 23.1203692,79.2014143 C27.1961128,79.2014143 31.077959,78.3981643 34.6363179,76.9700571" id="Stroke-18" stroke="#FFFFFF" stroke-width="2.03059256"></path>
                <path d="M35.3908615,76.9699607 L52.5103487,59.1837107" id="Stroke-20" stroke="#FFFFFF" stroke-width="2.03059256"></path>
                <path d="M41.5634256,79.0063393 L58.6829128,61.2200893" id="Stroke-22" stroke="#FFFFFF" stroke-width="2.03059256"></path>
                <path d="M49.7940308,79.0063393 L63.9329538,64.317375" id="Stroke-24" stroke="#FFFFFF" stroke-width="2.03059256"></path>
                <path d="M0.250215385,27.454275 C0.250215385,22.9279179 2.50390769,20.663775 7.01031795,20.663775 C11.5293949,20.663775 13.787959,22.9279179 13.787959,27.454275 L13.787959,31.8051321 L9.07595897,31.8051321 L9.07595897,27.454275 C9.07595897,26.0039893 8.39293333,25.2730607 7.02785641,25.2624536 L6.99375385,25.2624536 C5.63939487,25.2624536 4.96221538,25.9933821 4.96221538,27.454275 L4.96221538,30.3876321 C4.96221538,31.8273107 6.43349744,33.590025 9.37508718,35.6777036 C12.3166769,37.7538107 13.787959,40.2426321 13.787959,43.1432036 L13.787959,47.2298464 C13.787959,51.7668107 11.5342667,54.035775 7.02785641,54.035775 C2.50877949,54.0242036 0.250215385,51.7562036 0.250215385,47.2298464 L0.250215385,42.8789893 L4.96221538,42.8789893 L4.96221538,47.2298464 C4.96221538,48.6907393 5.65108718,49.4216679 7.02785641,49.4216679 C8.39293333,49.4216679 9.07595897,48.6907393 9.07595897,47.2298464 L9.07595897,43.5385607 C9.07595897,41.9783464 7.60467692,40.1539179 4.66308718,38.0672036 C1.72149744,35.9910964 0.250215385,33.4637036 0.250215385,30.4869536 L0.250215385,27.454275 Z" id="Fill-26" fill="#FFFFFF"></path>
                <path d="M31.1556154,47.2296536 C31.1556154,51.7560107 28.8970513,54.0240107 24.3779744,54.0355821 C19.8715641,54.0355821 17.6178718,51.7675821 17.6178718,47.2296536 L17.6178718,21.1746536 L22.3298718,21.1746536 L22.3298718,47.2296536 C22.3298718,48.6905464 23.0128974,49.421475 24.3779744,49.421475 C25.7547436,49.421475 26.4436154,48.6905464 26.4436154,47.2296536 L26.4436154,21.1746536 L31.1556154,21.1746536 L31.1556154,47.2296536 Z" id="Fill-28" fill="#FFFFFF"></path>
                <path d="M40.031441,25.7733321 L40.031441,35.0343321 L41.1139538,35.0343321 C41.7687231,35.0343321 42.2188769,34.9909393 42.4624667,34.9031893 C43.3179538,34.5627964 43.7447231,33.8752607 43.7447231,32.843475 L43.7447231,27.9815464 C43.7447231,26.5090821 43.0616974,25.7733321 41.6966205,25.7733321 L40.031441,25.7733321 Z M35.319441,21.1746536 L42.1799026,21.1746536 C46.3647744,21.186225 48.4567231,23.4551893 48.4567231,27.9815464 L48.4567231,32.843475 C48.4567231,36.1827964 46.9532872,38.3360464 43.9444667,39.303225 C43.2224667,39.5336893 42.1740564,39.6494036 40.7972872,39.6494036 L40.031441,39.6494036 L40.031441,53.5081179 L35.319441,53.5081179 L35.319441,21.1746536 Z" id="Fill-30" fill="#FFFFFF"></path>
                <polygon id="Fill-32" fill="#FFFFFF" points="51.9539897 21.1751357 64.1763487 21.1751357 64.1763487 25.7738143 56.6659897 25.7738143 56.6659897 35.0348143 63.1269641 35.0348143 63.1269641 39.6489214 56.6659897 39.6489214 56.6659897 48.9108857 64.1763487 48.9108857 64.1763487 53.5086 51.9539897 53.5086"></polygon>
                <path d="M72.3856154,25.7733321 L72.3856154,35.0343321 L73.4681282,35.0343321 C74.1228974,35.0343321 74.5730513,34.9909393 74.816641,34.9031893 C75.6721282,34.5627964 76.0988974,33.8752607 76.0988974,32.843475 L76.0988974,27.9815464 C76.0988974,26.5090821 75.4158718,25.7733321 74.0507949,25.7733321 L72.3856154,25.7733321 Z M67.6736154,21.1746536 L74.5340769,21.1746536 C78.7189487,21.186225 80.8108974,23.4551893 80.8108974,27.9815464 L80.8108974,32.843475 C80.8108974,35.6881179 79.5734615,37.561725 77.0976154,38.4623679 L82.3932564,53.5081179 L77.2311026,53.5081179 L72.9848462,39.2868321 L72.3856154,39.3687964 L72.3856154,53.5081179 L67.6736154,53.5081179 L67.6736154,21.1746536 Z" id="Fill-34" fill="#FFFFFF"></path>
            </g>
        </g>
    </g>
</svg>