<?xml version="1.0" encoding="UTF-8"?>
<svg width="144px" height="39px" viewBox="0 0 144 39" version="1.1" xmlns="http://www.w3.org/2000/svg" xmlns:xlink="http://www.w3.org/1999/xlink">
    <!-- Generator: Sketch 51.3 (57544) - http://www.bohemiancoding.com/sketch -->
    <title>Super sushi icon</title>
    <desc>Created with Sketch.</desc>
    <defs></defs>
    <g id="Page-1" stroke="none" stroke-width="1" fill="none" fill-rule="evenodd">
        <g id="Super-Sushi-website" transform="translate(-732.000000, -1503.000000)" stroke="#4A4A4A" stroke-width="2.03059256">
            <g id="Super-sushi-icon" transform="translate(734.000000, 1505.000000)">
                <path d="M61,31.0985597 C67.2356289,33.5955489 74.0381332,35 81.1804212,35 C96.9897553,35 111.159932,28.2239029 121,17.500843 C111.159932,6.77778313 96.9897553,0 81.1804212,0 C74.0381332,0 67.2356289,1.4061371 61,3.90144034" id="Stroke-12"></path>
                <path d="M41,17.5 C46.2721132,23.3368878 52.8009219,27.9936764 60.1942303,31 C61.3341016,26.6846869 62,22.1752015 62,17.5 C62,12.8247985 61.3341016,8.31531308 60.1942303,4 C52.8009219,7.00632362 46.2721132,11.6647861 41,17.5 Z" id="Stroke-14"></path>
                <path d="M120,17.5 C125.272113,23.3368878 131.799253,27.9936764 139.19423,31 C140.334102,26.6846869 141,22.1752015 141,17.5 C141,12.8247985 140.334102,8.31531308 139.19423,4 C131.799253,7.00632362 125.272113,11.6647861 120,17.5 Z" id="Stroke-16"></path>
                <path d="M60,3.90144034 C53.7643711,1.4061371 46.9618668,0 39.8195788,0 C24.0102447,0 9.8400683,6.77778313 0,17.499157 C9.8400683,28.2239029 24.0102447,35 39.8195788,35 C46.9618668,35 53.7643711,33.5955489 60,31.0985597" id="Stroke-18"></path>
                <path d="M61,31 L91,0" id="Stroke-20"></path>
                <path d="M71,35 L101,4" id="Stroke-22"></path>
                <path d="M86,35 L111,9" id="Stroke-24"></path>
            </g>
        </g>
    </g>
</svg>